<?xml version="1.0" encoding="utf-8"?>
<!-- Generator: Adobe Illustrator 24.2.3, SVG Export Plug-In . SVG Version: 6.00 Build 0)  -->
<svg version="1.1" id="圖層_1" xmlns="http://www.w3.org/2000/svg" xmlns:xlink="http://www.w3.org/1999/xlink" x="0px" y="0px"
	 viewBox="0 0 50 50" style="enable-background:new 0 0 50 50;" xml:space="preserve">
<g>
	<path d="M45.3,22.1L26.6,3.5C26.1,3.2,25.7,3,25.2,3H3.6c-1.1,0-2,0.9-2,2v21.6c0,0.6,0.2,1.1,0.5,1.5l18.4,18.4
		c0.6,0.6,1.3,1.1,2.1,1.4c0.7,0.3,1.4,0.4,2.4,0.4c0.9,0,1.7-0.1,2.3-0.4c1-0.3,1.8-1,2.1-1.3l15.7-15.5c1.2-1.2,1.8-2.8,1.8-4.6
		S46.5,23.4,45.3,22.1z M42.9,26.6c0,0.6-0.2,1.1-0.7,1.5L26.7,43.6c-0.2,0.2-0.5,0.4-0.7,0.5c-0.6,0.2-1.1,0.2-1.7,0
		c-0.2-0.1-0.5-0.2-0.7-0.5L5.7,25.8V7.1h18.6l17.9,18C42.7,25.5,42.9,26,42.9,26.6z"/>
	<path d="M15,12.3c-2.2,0-4,1.8-4,4s1.8,4,4,4s4-1.8,4-4S17.2,12.3,15,12.3z M16.3,16.5c0,0.7-0.6,1.4-1.4,1.4
		c-0.8,0-1.4-0.6-1.4-1.4c0-0.8,0.6-1.4,1.4-1.4C15.7,15.1,16.3,15.8,16.3,16.5z"/>
</g>
</svg>
