<?xml version="1.0" encoding="utf-8"?>
<!-- Generator: Adobe Illustrator 24.2.3, SVG Export Plug-In . SVG Version: 6.00 Build 0)  -->
<svg version="1.1" id="圖層_1" xmlns="http://www.w3.org/2000/svg" xmlns:xlink="http://www.w3.org/1999/xlink" x="0px" y="0px"
	 viewBox="0 0 50 50" style="enable-background:new 0 0 50 50;" xml:space="preserve">
<style type="text/css">
	.st0{fill-rule:evenodd;clip-rule:evenodd;}
</style>
<path class="st0" d="M25.7,35.5c0.2,0,0.2,0.2,0.4,0.2l9.4,8.1c0.4,0.2,0.5,0.4,0.9,0.4c0.9,0,1.4-0.7,1.4-1.6V9.1
	c0-1.8-1.4-3.2-3.1-3.2H15.3c-1.6,0-3.1,1.4-3.1,3.2v33.5c0,0.4,0.2,0.7,0.4,1.1c0.5,0.7,1.4,0.7,2.2,0.2l9.4-8.1
	c0.2,0,0.2-0.2,0.4-0.2C24.5,35.5,25.7,35.5,25.7,35.5z"/>
</svg>
