<?xml version="1.0" encoding="utf-8"?>
<!-- Generator: Adobe Illustrator 24.2.3, SVG Export Plug-In . SVG Version: 6.00 Build 0)  -->
<svg version="1.1" id="圖層_1" xmlns="http://www.w3.org/2000/svg" xmlns:xlink="http://www.w3.org/1999/xlink" x="0px" y="0px"
	 viewBox="0 0 50 50" style="enable-background:new 0 0 50 50;" xml:space="preserve">
<path d="M43.6,17.9v-4.7c0-0.7-0.3-1.1-0.6-1.5L32.4,1c-0.4-0.3-0.8-0.6-1.7-0.6h-22c-1.2,0-2.2,1-2.2,2.2V18H2.3
	c-1.2,0-2.2,1.1-2.2,2.4v20.5c0,1.1,1,2.2,2.2,2.2h4v4.7c0,1.2,1,2.2,2.2,2.2h32.6c1.2,0,2.2-1,2.2-2.2v-4.7h4c1.2,0,2.2-1,2.2-2.2
	V20.1c0-1.2-1-2.4-2.2-2.4h-3.7V17.9z M11.1,45V30.6h28.3V45H11.1z M11.1,17.9V4.7h17.5v8.5c0,1.2,1.1,2.2,2.2,2.2h8.5v2.5H11.1
	L11.1,17.9z M43.6,26.4c-1.2,0-2.2-1.1-2.2-2.4s1-2.2,2.2-2.2c1.2,0,2.2,1.1,2.2,2.2C45.8,25.3,44.9,26.4,43.6,26.4z M14.3,33.2v3.3
	h21.3v-3.3H14.3z M14.3,38.6V42h21.3v-3.3H14.3z"/>
</svg>
