<?xml version="1.0" encoding="utf-8"?>
<!-- Generator: Adobe Illustrator 24.2.3, SVG Export Plug-In . SVG Version: 6.00 Build 0)  -->
<svg version="1.1" id="圖層_1" xmlns="http://www.w3.org/2000/svg" xmlns:xlink="http://www.w3.org/1999/xlink" x="0px" y="0px"
	 viewBox="0 0 24 24" style="enable-background:new 0 0 24 24;" xml:space="preserve">
<style type="text/css">
	.st0{fill-rule:evenodd;clip-rule:evenodd;fill:#E15706;}
</style>
<path class="st0" d="M12.4,17.8c0.1,0,0.1,0.1,0.2,0.1l5.2,4.5c0.2,0.1,0.3,0.2,0.5,0.2c0.5,0,0.8-0.4,0.8-0.9V3.1
	c0-1-0.8-1.8-1.7-1.8H6.6c-0.9,0-1.7,0.8-1.7,1.8v18.6c0,0.2,0.1,0.4,0.2,0.6c0.3,0.4,0.8,0.4,1.2,0.1l5.2-4.5
	c0.1,0,0.1-0.1,0.2-0.1H12.4z"/>
</svg>
