<?xml version="1.0" encoding="utf-8"?>
<!-- Generator: Adobe Illustrator 24.2.3, SVG Export Plug-In . SVG Version: 6.00 Build 0)  -->
<svg version="1.1" id="圖層_1" xmlns="http://www.w3.org/2000/svg" xmlns:xlink="http://www.w3.org/1999/xlink" x="0px" y="0px"
	 viewBox="0 0 50 50" style="enable-background:new 0 0 50 50;" xml:space="preserve">
<path d="M36,2.3H14c-2.2,0-4.1,1.9-4.1,4.3v38.5c0,0.5,0.2,1.2,0.5,1.7l0.1,0.1c0.6,0.5,1.2,0.8,1.9,0.8c0.6,0,1.1-0.2,1.3-0.6
	l10.5-9.5c0.2-0.2,0.5-0.2,0.8-0.2c0.2,0,0.6,0,0.8,0.2l10.5,9.5c0.2,0.4,0.7,0.6,1.3,0.6c0.7,0,1.3-0.4,1.9-0.8l0.1-0.1
	c0.2-0.5,0.5-1.2,0.5-1.7V6.6C40.2,4.2,38.3,2.3,36,2.3z M35.9,41.5L28,34.4c-0.8-0.7-1.9-1.1-3-1.2c-1.1,0-2,0.4-3,1.2l-7.9,7.1
	V6.2h21.8V41.5z"/>
<path d="M45.8,47.6c-0.6,0-1.2-0.2-1.7-0.7L2.5,6.2C1.6,5.4,1.6,3.8,2.5,3s2.4-0.8,3.3,0l41.7,40.9c0.9,0.8,0.9,2.4,0,3.2
	C47,47.4,46.4,47.6,45.8,47.6z"/>
</svg>
