<?xml version="1.0" encoding="utf-8"?>
<!-- Generator: Adobe Illustrator 24.2.3, SVG Export Plug-In . SVG Version: 6.00 Build 0)  -->
<svg version="1.1" id="圖層_1" xmlns="http://www.w3.org/2000/svg" xmlns:xlink="http://www.w3.org/1999/xlink" x="0px" y="0px"
	 viewBox="0 0 50 50" style="enable-background:new 0 0 50 50;" xml:space="preserve">
<path d="M34.2,5.9H15.6c-1.9,0-3.5,1.6-3.5,3.6V42c0,0.4,0.2,1,0.4,1.4l0.1,0.1c0.5,0.4,1,0.7,1.6,0.7c0.5,0,0.9-0.2,1.1-0.5l8.9-8
	c0.2-0.2,0.4-0.2,0.7-0.2c0.2,0,0.5,0,0.7,0.2l8.9,8c0.2,0.3,0.6,0.5,1.1,0.5c0.6,0,1.1-0.3,1.6-0.7l0.1-0.1c0.2-0.4,0.4-1,0.4-1.4
	V9.5C37.7,7.5,36.1,5.9,34.2,5.9z M34.1,39l-6.7-6c-0.7-0.6-1.6-0.9-2.5-1c-0.9,0-1.7,0.3-2.5,1l-6.7,6V9.2h18.4V39z"/>
</svg>
