<?xml version="1.0" encoding="utf-8"?>
<!-- Generator: Adobe Illustrator 24.2.3, SVG Export Plug-In . SVG Version: 6.00 Build 0)  -->
<svg version="1.1" id="圖層_1" xmlns="http://www.w3.org/2000/svg" xmlns:xlink="http://www.w3.org/1999/xlink" x="0px" y="0px"
	 viewBox="0 0 48 48" style="enable-background:new 0 0 48 48;" xml:space="preserve">
<style type="text/css">
	.st0{fill:#FFFFFF;}
</style>
<path class="st0" d="M6.1,10c-0.4,0-0.8,0.1-1.1,0.2l17.8,15.9c0.8,0.7,1.6,0.7,2.4,0L43,10.2c-0.3-0.1-0.7-0.2-1.1-0.2H6.1z
	 M3.1,12.8c0,0.2,0,0.3,0,0.5v21.5C3,36.5,4.4,38,6.1,38h35.8c1.7,0,3.1-1.4,3.1-3.2V13.2c0-0.2,0-0.3,0-0.5L27.2,28.6
	c-1.8,1.6-4.6,1.6-6.4,0L3.1,12.8z"/>
</svg>
