<?xml version="1.0" encoding="utf-8"?>
<!-- Generator: Adobe Illustrator 24.2.3, SVG Export Plug-In . SVG Version: 6.00 Build 0)  -->
<svg version="1.1" id="圖層_1" xmlns="http://www.w3.org/2000/svg" xmlns:xlink="http://www.w3.org/1999/xlink" x="0px" y="0px"
	 viewBox="0 0 50 50" style="enable-background:new 0 0 50 50;" xml:space="preserve">
<g>
	<path d="M32,38.5c-0.3,0-0.8-0.1-1.1-0.3L17,29.9c-1-0.6-1.3-1.9-0.8-3c0.6-1,1.9-1.3,3-0.8l13.9,8.2c1,0.6,1.3,1.9,0.8,3
		C33.4,38.1,32.8,38.5,32,38.5z"/>
	<path d="M18,24.1c-0.8,0-1.4-0.3-1.9-1.1c-0.6-1-0.2-2.3,0.8-3l13.9-8.2c1-0.6,2.3-0.2,3,0.8c0.6,1,0.2,2.3-0.8,3l-13.9,8.3
		C18.8,24,18.3,24.1,18,24.1z"/>
	<path d="M37.2,19c-4.4,0-8.3-3.8-8.3-8.3s3.8-8.3,8.3-8.3s8.3,3.7,8.3,8.3C45.5,15.1,41.7,19,37.2,19z M37.2,6.7c-2.1,0-4,1.8-4,4
		c0,2.1,1.8,4,4,4s4-1.8,4-4C41.1,8.4,39.3,6.7,37.2,6.7z"/>
	<path d="M12.8,33.3c-4.6,0-8.3-3.7-8.3-8.3s3.7-8.3,8.3-8.3c4.6,0,8.3,3.7,8.3,8.3C21.1,29.4,17.3,33.3,12.8,33.3z M12.8,21
		c-2.2,0-4,1.8-4,4s1.8,4,4,4c2.1,0,4-1.8,4-4S15,21,12.8,21z"/>
	<path d="M37.2,47.7c-4.6,0-8.1-3.7-8.3-8.2c0-4.6,3.8-8.3,8.3-8.3s8.3,3.7,8.3,8.3C45.5,43.8,41.7,47.7,37.2,47.7z M37.2,35.3
		c-2.1,0-4,1.8-4,4c0.1,2.2,1.8,4,4,4c2.1,0,4-1.8,4-4C41.1,37.1,39.3,35.3,37.2,35.3z"/>
</g>
</svg>
