<?xml version="1.0" encoding="utf-8"?>
<!-- Generator: Adobe Illustrator 24.2.3, SVG Export Plug-In . SVG Version: 6.00 Build 0)  -->
<svg version="1.1" id="圖層_1" xmlns="http://www.w3.org/2000/svg" xmlns:xlink="http://www.w3.org/1999/xlink" x="0px" y="0px"
	 viewBox="0 0 28.3 28.3" style="enable-background:new 0 0 28.3 28.3;" xml:space="preserve">
<style type="text/css">
	.st0{fill:#FFFFFF;}
</style>
<path class="st0" d="M16.4,26.2c-0.2,0-0.3,0-0.5-0.1l-4.4-2.3c-0.3-0.2-0.5-0.5-0.5-0.9v-8.4L2.3,3.7C2.1,3.4,2,3,2.2,2.7
	s0.5-0.6,0.9-0.6h22.2c0.4,0,0.7,0.2,0.9,0.6s0.1,0.8-0.1,1.1l-8.7,10.7v10.7c0,0.3-0.2,0.7-0.5,0.9C16.8,26.2,16.6,26.2,16.4,26.2z
	 M13,22.3l2.4,1.3v-9.4c0-0.2,0.1-0.5,0.2-0.6l7.6-9.4h-18l7.6,9.4c0.1,0.2,0.2,0.4,0.2,0.6V22.3z"/>
</svg>
