<?xml version="1.0" encoding="utf-8"?>
<!-- Generator: Adobe Illustrator 24.2.3, SVG Export Plug-In . SVG Version: 6.00 Build 0)  -->
<svg version="1.1" id="圖層_1" xmlns="http://www.w3.org/2000/svg" xmlns:xlink="http://www.w3.org/1999/xlink" x="0px" y="0px"
	 viewBox="0 0 50 50" style="enable-background:new 0 0 50 50;" xml:space="preserve">
<path d="M38.6,44.5c-0.8,0-1.4-0.6-1.4-1.4V20.5c0-0.8,0.6-1.4,1.4-1.4s1.4,0.6,1.4,1.4v22.7C40,43.9,39.4,44.5,38.6,44.5z"/>
<path d="M25,44.5c-0.8,0-1.4-0.6-1.4-1.4V6.9c0-0.8,0.6-1.4,1.4-1.4s1.4,0.6,1.4,1.4v36.3C26.4,43.9,25.8,44.5,25,44.5z"/>
<path d="M11.4,44.5c-0.8,0-1.4-0.6-1.4-1.4V29.5c0-0.8,0.6-1.4,1.4-1.4c0.8,0,1.4,0.6,1.4,1.4v13.6C12.7,43.9,12.1,44.5,11.4,44.5z"
	/>
</svg>
