<?xml version="1.0" encoding="utf-8"?>
<!-- Generator: Adobe Illustrator 24.2.3, SVG Export Plug-In . SVG Version: 6.00 Build 0)  -->
<svg version="1.1" id="圖層_1" xmlns="http://www.w3.org/2000/svg" xmlns:xlink="http://www.w3.org/1999/xlink" x="0px" y="0px"
	 viewBox="0 0 50 50" style="enable-background:new 0 0 50 50;" xml:space="preserve">
<style type="text/css">
	.st0{fill:#FFFFFF;}
</style>
<path class="st0" d="M35.9,2.4h-22c-2.2,0-4.1,1.9-4.1,4.3v38.5c0,0.5,0.2,1.2,0.5,1.7l0.1,0.1c0.6,0.5,1.2,0.8,1.9,0.8
	c0.6,0,1.1-0.2,1.3-0.6l10.5-9.5c0.2-0.2,0.5-0.2,0.8-0.2c0.2,0,0.6,0,0.8,0.2l10.5,9.5c0.2,0.4,0.7,0.6,1.3,0.6
	c0.7,0,1.3-0.4,1.9-0.8l0.1-0.1c0.2-0.5,0.5-1.2,0.5-1.7V6.6C40.1,4.3,38.2,2.4,35.9,2.4z M35.8,41.6l-7.9-7.1
	c-0.8-0.7-1.9-1.1-3-1.2c-1.1,0-2,0.4-3,1.2L14,41.6V6.3h21.8V41.6z"/>
</svg>
