<?xml version="1.0" encoding="utf-8"?>
<!-- Generator: Adobe Illustrator 24.2.3, SVG Export Plug-In . SVG Version: 6.00 Build 0)  -->
<svg version="1.1" id="圖層_1" xmlns="http://www.w3.org/2000/svg" xmlns:xlink="http://www.w3.org/1999/xlink" x="0px" y="0px"
	 viewBox="0 0 28.4 28.4" style="enable-background:new 0 0 28.4 28.4;" xml:space="preserve">
<style type="text/css">
	.st0{fill:#FFFFFF;}
</style>
<g>
	<path class="st0" d="M21.1,12.4H7.2H3.7v3.5v8.7c0,1.9,1.6,3.5,3.5,3.5h13.9c1.9,0,3.5-1.6,3.5-3.5v-8.7v-3.5
		C24.6,12.4,21.1,12.4,21.1,12.4z M10.7,23.7c0,0.5-0.4,0.9-0.9,0.9H8.1c-0.5,0-0.9-0.4-0.9-0.9v-7c0-0.5,0.4-0.9,0.9-0.9h1.7
		c0.5,0,0.9,0.4,0.9,0.9L10.7,23.7L10.7,23.7z M15.9,23.7c0,0.5-0.4,0.9-0.9,0.9h-1.7c-0.5,0-0.9-0.4-0.9-0.9v-7
		c0-0.5,0.4-0.9,0.9-0.9H15c0.5,0,0.9,0.4,0.9,0.9V23.7z M21.1,23.7c0,0.5-0.4,0.9-0.9,0.9h-1.7c-0.5,0-0.9-0.4-0.9-0.9v-7
		c0-0.5,0.4-0.9,0.9-0.9h1.7c0.5,0,0.9,0.4,0.9,0.9V23.7z"/>
	<path class="st0" d="M26.3,7.2c-0.1,0-1.6-1.7-3.5-1.7h-3.5c0-2.1-1.4-5.2-5.2-5.2C10.3,0.3,9,3.4,9,5.5H5.5C3.6,5.5,2.1,7.2,2,7.2
		h0v3.5h3.5h17.4h3.5L26.3,7.2L26.3,7.2z M11.7,5.5c0-0.8,0.6-2.5,2.5-2.5c1.8,0,2.4,1.7,2.4,2.5H11.7z"/>
</g>
</svg>
