<?xml version="1.0" encoding="utf-8"?>
<!-- Generator: Adobe Illustrator 24.2.3, SVG Export Plug-In . SVG Version: 6.00 Build 0)  -->
<svg version="1.1" id="Layer_1" xmlns="http://www.w3.org/2000/svg" xmlns:xlink="http://www.w3.org/1999/xlink" x="0px" y="0px"
	 viewBox="0 0 50 50" style="enable-background:new 0 0 50 50;" xml:space="preserve">
<g>
	<g>
		<g>
			<path d="M24.5,1.9c-6,0-10.8,4.8-10.8,10.8s4.8,10.8,10.8,10.8s10.8-4.8,10.8-10.8S30.5,1.9,24.5,1.9z"/>
		</g>
	</g>
	<g>
		<g>
			<path d="M38.2,32.6c-3.4-3.3-7.6-5.2-12.3-5.2h-2.7c-4.8,0-9.2,1.9-12.6,5.2c-3.4,3.2-6.8,10-6.8,14.4c0,0.7,0.6,1.3,1.4,1.3
				h38.9c0.7,0,1.4-0.6,1.4-1.3C45.2,42.6,41.6,35.8,38.2,32.6z"/>
		</g>
	</g>
</g>
</svg>
