<?xml version="1.0" encoding="utf-8"?>
<!-- Generator: Adobe Illustrator 24.2.3, SVG Export Plug-In . SVG Version: 6.00 Build 0)  -->
<svg version="1.1" id="圖層_1" xmlns="http://www.w3.org/2000/svg" xmlns:xlink="http://www.w3.org/1999/xlink" x="0px" y="0px"
	 viewBox="0 0 50 50" style="enable-background:new 0 0 50 50;" xml:space="preserve">
<style type="text/css">
	.st0{fill:none;stroke:#000000;stroke-width:2;stroke-linecap:round;stroke-linejoin:round;}
</style>
<g>
	<path class="st0" d="M29.5,2.5h-18c-1.2,0-2.3,0.5-3.2,1.3C7.5,4.7,7,5.8,7,7v36c0,1.2,0.5,2.3,1.3,3.2c0.8,0.8,2,1.3,3.2,1.3h27
		c1.2,0,2.3-0.5,3.2-1.3c0.8-0.8,1.3-2,1.3-3.2V16L29.5,2.5z"/>
	<path class="st0" d="M29.5,2.5V16H43"/>
	<path class="st0" d="M34,27.2H16"/>
	<path class="st0" d="M34,36.2H16"/>
	<path class="st0" d="M20.5,18.2h-2.2H16"/>
</g>
</svg>
