<?xml version="1.0" encoding="utf-8"?>
<!-- Generator: Adobe Illustrator 24.2.3, SVG Export Plug-In . SVG Version: 6.00 Build 0)  -->
<svg version="1.1" id="圖層_1" xmlns="http://www.w3.org/2000/svg" xmlns:xlink="http://www.w3.org/1999/xlink" x="0px" y="0px"
	 viewBox="0 0 50 50" style="enable-background:new 0 0 50 50;" xml:space="preserve">
<path d="M39.2,50H6.1c-1.7,0-3.2-0.7-4.3-1.8C0.7,47.1,0,45.4,0,43.9V10.8c0-1.7,0.7-3.2,1.8-4.3s2.6-1.8,4.3-1.8h12.6
	c0.8,0,1.4,0.6,1.4,1.4s-0.6,1.4-1.4,1.4H6.1c-0.8,0-1.7,0.3-2.4,1s-1,1.5-1,2.4v33.1c0,0.8,0.4,1.7,1,2.4c0.7,0.7,1.5,1,2.4,1h33.1
	c0.8,0,1.7-0.4,2.4-1c0.7-0.7,1-1.5,1-2.4V31.2c0-0.8,0.6-1.4,1.4-1.4s1.4,0.6,1.4,1.4v12.6c0,1.7-0.7,3.2-1.8,4.3
	C42.4,49.3,40.8,50,39.2,50z"/>
<g>
	<path d="M39.2,1.4l9.4,9.4L25,34.4h-9.4V25L39.2,1.4z"/>
	<path d="M25,35.8h-9.4c-0.8,0-1.4-0.6-1.4-1.4V25c0-0.4,0.1-0.7,0.4-1L38.2,0.4c0.6-0.6,1.4-0.6,1.9,0l9.4,9.4
		c0.6,0.6,0.6,1.4,0,1.9L26,35.4C25.7,35.7,25.4,35.8,25,35.8z M16.9,33.1h7.5l22.2-22.2l-7.5-7.5L16.9,25.6
		C16.9,25.6,16.9,33.1,16.9,33.1z"/>
</g>
</svg>
