<?xml version="1.0" encoding="utf-8"?>
<!-- Generator: Adobe Illustrator 27.0.1, SVG Export Plug-In . SVG Version: 6.00 Build 0)  -->
<svg version="1.1" id="圖層_1" xmlns="http://www.w3.org/2000/svg" xmlns:xlink="http://www.w3.org/1999/xlink" x="0px" y="0px"
	 viewBox="0 0 24 24" style="enable-background:new 0 0 24 24;" xml:space="preserve">
<path d="M0.4,5c0-0.6,0.5-1.2,1.2-1.2h9.3C11.5,3.9,12,4.4,12,5s-0.5,1.2-1.2,1.2H1.5C0.9,6.2,0.4,5.7,0.4,5z"/>
<path d="M0.4,12c0-0.6,0.5-1.2,1.2-1.2h21c0.6,0,1.2,0.5,1.2,1.2c0,0.6-0.5,1.2-1.2,1.2h-21C0.9,13.2,0.4,12.6,0.4,12z"/>
<path d="M1.5,17.8c-0.6,0-1.2,0.5-1.2,1.2c0,0.6,0.5,1.2,1.2,1.2h14c0.6,0,1.2-0.5,1.2-1.2c0-0.6-0.5-1.2-1.2-1.2H1.5z"/>
</svg>
