<svg width="50" height="50" viewBox="0 0 50 50" fill="none" xmlns="http://www.w3.org/2000/svg">
<path d="M43.6106 4.16669H6.38917C4.01152 4.16669 2.0835 6.08614 2.0835 8.4539V33.3233C2.0835 35.6911 4.01152 37.6106 6.38917 37.6106H8.74258C8.15409 39.4504 6.78756 42.6687 3.7619 46.1806C3.7619 46.1806 13.9685 44.2524 17.6625 37.6106H43.6112C45.9888 37.6106 47.9168 35.6911 47.9168 33.3233V8.45445C47.9168 6.08614 45.9888 4.16669 43.6106 4.16669ZM22.4812 20.5199C22.4812 20.679 22.4514 20.8294 22.4095 20.9759C21.6646 26.6678 15.065 29.6469 15.065 29.6469C17.2426 27.8064 18.1468 24.4389 18.5193 22.1913H16.7445C15.8166 22.1913 15.065 21.4428 15.065 20.5193V16.4785C15.065 15.555 15.8166 14.8065 16.7445 14.8065H20.8017C21.7296 14.8065 22.4812 15.555 22.4812 16.4785V20.5199ZM34.9348 20.5199C34.9348 20.679 34.905 20.8294 34.8632 20.9759C34.1182 26.6678 27.5186 29.6474 27.5186 29.6474C29.6957 27.807 30.6005 24.4394 30.973 22.1918H29.1981C28.2702 22.1918 27.5186 21.4434 27.5186 20.5199V16.479C27.5186 15.5555 28.2702 14.8071 29.1981 14.8071H33.2553C34.1832 14.8071 34.9348 15.5555 34.9348 16.479V20.5199Z" fill="black"/>
</svg>
