<?xml version="1.0" encoding="utf-8"?>
<!-- Generator: Adobe Illustrator 24.2.3, SVG Export Plug-In . SVG Version: 6.00 Build 0)  -->
<svg version="1.1" id="圖層_1" xmlns="http://www.w3.org/2000/svg" xmlns:xlink="http://www.w3.org/1999/xlink" x="0px" y="0px"
	 viewBox="0 0 50 50" style="enable-background:new 0 0 50 50;" xml:space="preserve">
<g>
	<path d="M22.6,33.2l-7.1,6.4V9.3c-0.2-0.2,0-0.4,0.2-0.4h18.7c0.2,0,0.4,0.2,0.4,0.4v30.2l-7.1-6.4C26.1,31.9,24,31.9,22.6,33.2z
		 M34.5,6.1H15.6c-1.8,0-3.2,1.6-3.2,3.4v32.6c0,0.4,0.2,0.9,0.4,1.2c0.7,0.7,1.8,0.9,2.5,0.2l8.9-8c0.4-0.4,1.1-0.4,1.4,0l8.9,8
		c0.4,0.4,0.7,0.4,1.1,0.4c1.1,0,1.8-0.9,1.8-1.8V9.5C37.7,7.5,36.3,6.1,34.5,6.1z"/>
	<path d="M14.2,44.2c-0.6,0-1.1-0.3-1.6-0.7l-0.1-0.1c-0.2-0.4-0.4-1-0.4-1.4V9.5c0-2,1.6-3.6,3.5-3.6h18.9c1,0,1.9,0.4,2.5,1.1
		c0.6,0.7,0.8,1.6,0.6,2.6l0,32.5c0,1-0.8,2-2.1,2c-0.4,0-0.8,0-1.3-0.4l-8.9-8c-0.3-0.3-0.8-0.3-1.1,0l-8.9,8
		C15.1,44,14.7,44.2,14.2,44.2z M13,43.1c0.6,0.6,1.5,0.7,2.1,0.1l8.9-8c0.5-0.5,1.3-0.5,1.8,0l8.9,8c0.3,0.3,0.6,0.3,0.9,0.3
		c0.9,0,1.5-0.8,1.5-1.5V9.5c0.2-0.9,0-1.6-0.5-2.2c-0.5-0.6-1.2-0.9-2.1-0.9H15.6c-1.6,0-2.9,1.4-2.9,3.1v32.6
		C12.7,42.4,12.8,42.8,13,43.1z M35,40.2l-7.6-6.8c-1.3-1.2-3.3-1.2-4.6,0l-7.6,6.8V9.4c-0.1-0.1-0.1-0.3,0-0.4
		c0.1-0.2,0.3-0.3,0.5-0.3h18.7C34.7,8.7,35,9,35,9.3V40.2z M25.1,32c1,0,1.9,0.3,2.7,1l6.7,6V9.3c0,0-0.1-0.1-0.1-0.1H15.7l0,0.1
		V39l6.7-6C23.2,32.3,24.1,32,25.1,32z"/>
</g>
</svg>
