<?xml version="1.0" encoding="utf-8"?>
<!-- Generator: Adobe Illustrator 24.2.3, SVG Export Plug-In . SVG Version: 6.00 Build 0)  -->
<svg version="1.1" id="圖層_1" xmlns="http://www.w3.org/2000/svg" xmlns:xlink="http://www.w3.org/1999/xlink" x="0px" y="0px"
	 viewBox="0 0 50 50" style="enable-background:new 0 0 50 50;" xml:space="preserve">
<style type="text/css">
	.st0{fill-rule:evenodd;clip-rule:evenodd;fill:#E15706;}
</style>
<path class="st0" d="M25.8,37.4c0.2,0,0.2,0.2,0.5,0.2l11.1,9.6c0.5,0.2,0.6,0.5,1.1,0.5c1.1,0,1.7-0.8,1.7-1.9V6.2
	c0-2.1-1.7-3.8-3.7-3.8H13.5c-1.9,0-3.7,1.7-3.7,3.8v39.6c0,0.5,0.2,0.8,0.5,1.3c0.6,0.8,1.7,0.8,2.6,0.2l11.1-9.6
	c0.2,0,0.2-0.2,0.5-0.2C24.4,37.4,25.8,37.4,25.8,37.4z"/>
</svg>
