<?xml version="1.0" encoding="utf-8"?>
<!-- Generator: Adobe Illustrator 24.2.3, SVG Export Plug-In . SVG Version: 6.00 Build 0)  -->
<svg version="1.1" id="圖層_1" xmlns="http://www.w3.org/2000/svg" xmlns:xlink="http://www.w3.org/1999/xlink" x="0px" y="0px"
	 viewBox="0 0 50 50" style="enable-background:new 0 0 50 50;" xml:space="preserve">
<g>
	<path d="M4.1,47.4c-0.4,0-0.8-0.1-1.1-0.4c-0.6-0.6-0.6-1.5,0-2.1L44.8,3c0.6-0.6,1.5-0.6,2.1,0c0.6,0.6,0.6,1.5,0,2.1L5.2,47
		C4.9,47.3,4.5,47.4,4.1,47.4z"/>
	<path d="M45.9,47.4c-0.4,0-0.8-0.1-1.1-0.4L3,5.2C2.5,4.6,2.5,3.6,3,3c0.6-0.6,1.5-0.6,2.1,0L47,44.8c0.6,0.6,0.6,1.5,0,2.1
		C46.7,47.3,46.3,47.4,45.9,47.4z"/>
</g>
</svg>
