<?xml version="1.0" encoding="utf-8"?>
<!-- Generator: Adobe Illustrator 24.2.3, SVG Export Plug-In . SVG Version: 6.00 Build 0)  -->
<svg version="1.1" id="圖層_1" xmlns="http://www.w3.org/2000/svg" xmlns:xlink="http://www.w3.org/1999/xlink" x="0px" y="0px"
	 viewBox="0 0 50 50" style="enable-background:new 0 0 50 50;" xml:space="preserve">
<style type="text/css">
	.st0{fill:#555555;}
</style>
<g>
	<path class="st0" d="M12.2,45.9h27.9c0.6,0,1.2-0.5,1.2-1.2V5.3c0-0.6-0.5-1.2-1.2-1.2H12.2c-1.9,0-3.5,1.6-3.5,3.5v34.8
		C8.7,44.3,10.3,45.9,12.2,45.9z M15.7,6.4H39v32.5H15.7V6.4z M11,7.6c0-0.6,0.5-1.2,1.2-1.2h1.2v32.5h-1.2c-0.4,0-0.8,0.1-1.2,0.2
		V7.6z M12.2,41.2h25.6v2.3H12.2c-0.6,0-1.2-0.5-1.2-1.2C11,41.8,11.6,41.2,12.2,41.2z"/>
	<path class="st0" d="M32.9,11.2H21.4c-1.9,0-3.5,1.6-3.5,3.5v7.1c0,1.9,1.6,3.5,3.5,3.5h11.5c1.9,0,3.5-1.6,3.5-3.5v-7.1
		C36.4,12.7,34.8,11.2,32.9,11.2z M34.1,21.7c0,0.6-0.5,1.2-1.2,1.2H21.4c-0.6,0-1.2-0.5-1.2-1.2v-7.1c0-0.6,0.5-1.2,1.2-1.2h11.5
		c0.6,0,1.2,0.5,1.2,1.2C34.1,14.6,34.1,21.7,34.1,21.7z"/>
</g>
</svg>
