<?xml version="1.0" encoding="utf-8"?>
<!-- Generator: Adobe Illustrator 24.2.3, SVG Export Plug-In . SVG Version: 6.00 Build 0)  -->
<svg version="1.1" id="圖層_1" xmlns="http://www.w3.org/2000/svg" xmlns:xlink="http://www.w3.org/1999/xlink" x="0px" y="0px"
	 viewBox="0 0 50 50" style="enable-background:new 0 0 50 50;" xml:space="preserve">
<style type="text/css">
	.st0{fill:#323333;}
</style>
<path class="st0" d="M42.5,3.9L42.5,3.9L16.4,3.8c-2.8,0-5,2.2-5,5v24.8H2.8v6.5c0,2.7,2,4.7,4.9,4.9h25.3l0,0
	c3.1-0.1,5.5-2.7,5.5-5.8V16.9h8.5V8.8C47.2,6.2,45.2,4.2,42.5,3.9z M7.9,43c-1.7-0.1-3-1.3-3-2.9v-4.4h6.5v0h16.4v4.4
	c0,1.1,0.4,2.1,1,2.9c0,0,0,0,0,0L7.9,43z M36.4,8.8v30.5c0,2-1.6,3.6-3.5,3.6c-1.7-0.1-2.9-1.3-2.9-2.8v-6.6H13.6V8.8
	c0-1.6,1.3-2.8,2.8-2.8h20.9C36.7,6.8,36.4,7.8,36.4,8.8z M45.1,14.8h-6.5v-6c0-0.8,0.3-1.5,0.9-2c0.5-0.4,1.2-0.7,2-0.8l0.8-0.1
	c1.4,0.2,2.7,1.2,2.7,2.8V14.8z M17.2,13H25c0.6,0,1-0.5,1-1s-0.5-1-1-1h-7.8c-0.6,0-1,0.5-1,1S16.6,13,17.2,13z M32.8,25H17.2
	c-0.6,0-1,0.5-1,1s0.5,1,1,1h15.6c0.6,0,1-0.5,1-1S33.4,25,32.8,25z M18.7,29.7h-1.6c-0.6,0-1,0.5-1,1s0.5,1,1,1h1.6
	c0.6,0,1-0.5,1-1S19.3,29.7,18.7,29.7z M25.8,29.7h-2.3c-0.6,0-1,0.5-1,1s0.5,1,1,1h2.3c0.6,0,1-0.5,1-1S26.4,29.7,25.8,29.7z
	 M20.4,30c-0.2,0.2-0.3,0.5-0.3,0.7c0,0.3,0.1,0.5,0.3,0.7c0.2,0.2,0.5,0.3,0.7,0.3c0.3,0,0.5-0.1,0.7-0.3c0.2-0.2,0.3-0.5,0.3-0.7
	c0-0.3-0.1-0.5-0.3-0.7C21.5,29.7,20.7,29.7,20.4,30z M17.2,22.4h2.3c0.6,0,1-0.5,1-1s-0.5-1-1-1h-2.3c-0.6,0-1,0.5-1,1
	S16.6,22.4,17.2,22.4z M32.8,20.3h-8.6c-0.6,0-1,0.5-1,1s0.5,1,1,1h8.6c0.6,0,1-0.5,1-1S33.4,20.3,32.8,20.3z M21.1,20.6
	c-0.2,0.2-0.3,0.5-0.3,0.7c0,0.3,0.1,0.5,0.3,0.7c0.2,0.2,0.5,0.3,0.7,0.3c0.3,0,0.5-0.1,0.7-0.3c0.2-0.2,0.3-0.5,0.3-0.7
	c0-0.3-0.1-0.5-0.3-0.7C22.2,20.3,21.5,20.3,21.1,20.6z M24.5,16.7c0-0.6-0.5-1-1-1h-6.3c-0.6,0-1,0.5-1,1s0.5,1,1,1h6.3
	C24,17.7,24.5,17.2,24.5,16.7z M28.1,17.7h4.7c0.6,0,1-0.5,1-1s-0.5-1-1-1h-4.7c-0.6,0-1,0.5-1,1S27.6,17.7,28.1,17.7z M25,15.9
	c-0.2,0.2-0.3,0.5-0.3,0.7c0,0.3,0.1,0.5,0.3,0.7c0.2,0.2,0.5,0.3,0.7,0.3c0.3,0,0.5-0.1,0.7-0.3c0.2-0.2,0.3-0.5,0.3-0.7
	c0-0.3-0.1-0.5-0.3-0.7C26.1,15.6,25.4,15.6,25,15.9z"/>
</svg>
