<?xml version="1.0" encoding="utf-8"?>
<!-- Generator: Adobe Illustrator 24.2.3, SVG Export Plug-In . SVG Version: 6.00 Build 0)  -->
<svg version="1.1" id="圖層_1" xmlns="http://www.w3.org/2000/svg" xmlns:xlink="http://www.w3.org/1999/xlink" x="0px" y="0px"
	 viewBox="0 0 50 50" style="enable-background:new 0 0 50 50;" xml:space="preserve">
<style type="text/css">
	.st0{fill:none;stroke:#E15706;stroke-width:3;stroke-linecap:round;stroke-linejoin:round;}
</style>
<path class="st0" d="M15.6,44.1H9.8c-1,0-2-0.4-2.7-1.1c-0.7-0.7-1.1-1.7-1.1-2.7V26.9c0-1,0.4-2,1.1-2.7c0.7-0.7,1.7-1.1,2.7-1.1
	h5.8 M29.2,19.3v-7.6c0-1.5-0.6-3-1.7-4.1c-1.1-1.1-2.6-1.7-4.1-1.7l-7.8,17.2v21h21.9c0.9,0,1.8-0.3,2.6-0.9
	c0.7-0.6,1.2-1.4,1.3-2.3l2.7-17.2c0.1-0.5,0-1.1-0.1-1.6c-0.2-0.5-0.4-1-0.8-1.4c-0.4-0.4-0.8-0.8-1.3-1c-0.5-0.2-1.1-0.3-1.6-0.3
	H29.2z"/>
</svg>
