<?xml version="1.0" encoding="utf-8"?>
<!-- Generator: Adobe Illustrator 24.2.3, SVG Export Plug-In . SVG Version: 6.00 Build 0)  -->
<svg version="1.1" id="圖層_1" xmlns="http://www.w3.org/2000/svg" xmlns:xlink="http://www.w3.org/1999/xlink" x="0px" y="0px"
	 viewBox="0 0 50 50" style="enable-background:new 0 0 50 50;" xml:space="preserve">
<style type="text/css">
	.st0{fill:#333333;}
</style>
<g>
	<path class="st0" d="M47.9,19.7l-22.5-8.8c-0.3-0.1-0.5-0.1-0.8,0L2.1,19.7c-0.2,0.1-0.4,0.2-0.5,0.4c-0.1,0.2-0.2,0.4-0.2,0.6
		c0,0.2,0.1,0.5,0.2,0.6c0.1,0.2,0.3,0.3,0.5,0.4l9.5,3.7v7.8c0,0.2,0,0.3,0.1,0.5c0.1,0.1,0.2,0.3,0.3,0.4c3.6,3.3,8.2,5.1,13,5.1
		s9.5-1.8,13-5.1c0.1-0.1,0.2-0.2,0.3-0.4c0.1-0.1,0.1-0.3,0.1-0.5v-7.8l3.4-1.3v4.7c-0.5,0.2-0.9,0.5-1.3,1
		c-0.3,0.4-0.5,0.9-0.6,1.5c-0.1,0.5,0,1.1,0.3,1.6c0.2,0.5,0.6,0.9,1,1.2l-1.4,2.4c-0.1,0.1-0.1,0.3-0.1,0.4c0,0.1,0,0.3,0,0.4
		c0,0.1,0.1,0.3,0.2,0.4c0.1,0.1,0.2,0.2,0.3,0.3c0.2,0.1,0.4,0.1,0.6,0.1c0.2,0,0.4-0.1,0.6-0.2c0.2-0.1,0.3-0.2,0.4-0.4l1.1-1.9
		l1.1,1.9c0.1,0.2,0.2,0.3,0.4,0.4c0.2,0.1,0.4,0.2,0.6,0.2c0.2,0,0.4-0.1,0.6-0.2c0.2-0.1,0.3-0.2,0.4-0.4c0.1-0.2,0.2-0.4,0.2-0.6
		c0-0.2-0.1-0.4-0.2-0.6l-1.4-2.4c0.4-0.3,0.8-0.7,1-1.2c0.2-0.5,0.3-1,0.3-1.6c-0.1-0.5-0.3-1-0.6-1.5c-0.3-0.4-0.7-0.8-1.2-1v-5.6
		l3.9-1.5c0.2-0.1,0.4-0.2,0.5-0.4c0.1-0.2,0.2-0.4,0.2-0.6c0-0.2-0.1-0.5-0.2-0.6C48.3,19.9,48.1,19.8,47.9,19.7L47.9,19.7z
		 M36.1,32.7c-3.1,2.7-7.1,4.2-11.1,4.2s-8-1.5-11.1-4.2v-6.4l10.7,4.2c0.3,0.1,0.5,0.1,0.8,0l10.7-4.2V32.7z M42.9,32.3
		c-0.1,0-0.3,0-0.4-0.1c-0.1-0.1-0.2-0.2-0.3-0.3c-0.1-0.1-0.1-0.3,0-0.4c0-0.1,0.1-0.3,0.2-0.4c0.1-0.1,0.2-0.2,0.4-0.2
		c0.1,0,0.3,0,0.4,0c0.1,0.1,0.2,0.1,0.3,0.3c0.1,0.1,0.1,0.3,0.1,0.4c0,0.1,0,0.2-0.1,0.3c0,0.1-0.1,0.2-0.2,0.2
		c-0.1,0.1-0.1,0.1-0.2,0.2C43.1,32.3,43,32.3,42.9,32.3L42.9,32.3z M25,28.3L5.7,20.7L25,13.2l19.3,7.5L25,28.3z"/>
</g>
</svg>
