<?xml version="1.0" encoding="utf-8"?>
<!-- Generator: Adobe Illustrator 24.2.3, SVG Export Plug-In . SVG Version: 6.00 Build 0)  -->
<svg version="1.1" id="圖層_1" xmlns="http://www.w3.org/2000/svg" xmlns:xlink="http://www.w3.org/1999/xlink" x="0px" y="0px"
	 viewBox="0 0 50 50" style="enable-background:new 0 0 50 50;" xml:space="preserve">
<style type="text/css">
	.st0{fill:#555555;}
</style>
<g>
	<path class="st0" d="M44.7,20.9H5.3c-0.4,0-0.7-0.1-1-0.4s-0.4-0.6-0.4-1v-6.8c0-0.3,0.1-0.6,0.3-0.8c0.2-0.2,0.4-0.4,0.7-0.5
		l19.7-6.8c0.3-0.1,0.6-0.1,0.9,0l19.7,6.8c0.3,0.1,0.5,0.3,0.7,0.5s0.3,0.5,0.3,0.8v6.8c0,0.4-0.1,0.7-0.4,1
		C45.4,20.8,45.1,20.9,44.7,20.9z M6.7,18.2h36.6v-4.5L25,7.4L6.7,13.7V18.2z"/>
	<path class="st0" d="M44.7,45.5H5.3c-0.4,0-0.7-0.1-1-0.4c-0.3-0.3-0.4-0.6-0.4-1v-5.5c0-0.4,0.1-0.7,0.4-1s0.6-0.4,1-0.4h39.4
		c0.4,0,0.7,0.1,1,0.4c0.3,0.3,0.4,0.6,0.4,1v5.5c0,0.4-0.1,0.7-0.4,1C45.4,45.3,45.1,45.5,44.7,45.5z M6.7,42.7h36.6V40H6.7V42.7z"
		/>
	<path class="st0" d="M15.2,40H9.5c-0.4,0-0.7-0.1-1-0.4c-0.3-0.3-0.4-0.6-0.4-1V19.5c0-0.4,0.1-0.7,0.4-1c0.3-0.3,0.6-0.4,1-0.4
		h5.6c0.4,0,0.7,0.1,1,0.4c0.3,0.3,0.4,0.6,0.4,1v19.1c0,0.4-0.1,0.7-0.4,1C15.9,39.9,15.5,40,15.2,40z M10.9,37.3h2.8V20.9h-2.8
		V37.3z"/>
	<path class="st0" d="M40.5,40h-5.6c-0.4,0-0.7-0.1-1-0.4c-0.3-0.3-0.4-0.6-0.4-1V19.5c0-0.4,0.1-0.7,0.4-1c0.3-0.3,0.6-0.4,1-0.4
		h5.6c0.4,0,0.7,0.1,1,0.4s0.4,0.6,0.4,1v19.1c0,0.4-0.1,0.7-0.4,1C41.2,39.9,40.8,40,40.5,40z M36.3,37.3h2.8V20.9h-2.8V37.3z"/>
	<path class="st0" d="M27.8,40h-5.6c-0.4,0-0.7-0.1-1-0.4c-0.3-0.3-0.4-0.6-0.4-1V19.5c0-0.4,0.1-0.7,0.4-1s0.6-0.4,1-0.4h5.6
		c0.4,0,0.7,0.1,1,0.4s0.4,0.6,0.4,1v19.1c0,0.4-0.1,0.7-0.4,1C28.5,39.9,28.2,40,27.8,40z M23.6,37.3h2.8V20.9h-2.8V37.3z"/>
</g>
</svg>
