<?xml version="1.0" encoding="utf-8"?>
<!-- Generator: Adobe Illustrator 24.2.3, SVG Export Plug-In . SVG Version: 6.00 Build 0)  -->
<svg version="1.1" id="圖層_1" xmlns="http://www.w3.org/2000/svg" xmlns:xlink="http://www.w3.org/1999/xlink" x="0px" y="0px"
	 viewBox="0 0 50 50" style="enable-background:new 0 0 50 50;" xml:space="preserve">
<style type="text/css">
	.st0{fill:#555555;}
</style>
<path class="st0" d="M42.6,4.5L42.6,4.5L16.5,4.4c-2.8,0-5,2.2-5,5v24.8H2.9v6.5c0,2.7,2,4.7,4.9,4.9h25.3l0,0
	c3.1-0.1,5.5-2.7,5.5-5.8V17.5h8.5V9.4C47.3,6.8,45.3,4.8,42.6,4.5z M8,43.6c-1.7-0.1-3-1.3-3-2.9v-4.4h6.5l0,0h16.4v4.4
	c0,1.1,0.4,2.1,1,2.9l0,0H8z M36.5,9.4v30.5c0,2-1.6,3.6-3.5,3.6c-1.7-0.1-2.9-1.3-2.9-2.8v-6.6H13.7V9.4c0-1.6,1.3-2.8,2.8-2.8
	h20.9C36.8,7.4,36.5,8.4,36.5,9.4z M45.2,15.4h-6.5v-6c0-0.8,0.3-1.5,0.9-2c0.5-0.4,1.2-0.7,2-0.8l0.8-0.1c1.4,0.2,2.7,1.2,2.7,2.8
	L45.2,15.4L45.2,15.4z M17.3,13.6h7.8c0.6,0,1-0.5,1-1s-0.5-1-1-1h-7.8c-0.6,0-1,0.5-1,1S16.7,13.6,17.3,13.6z M32.9,25.6H17.3
	c-0.6,0-1,0.5-1,1s0.5,1,1,1h15.6c0.6,0,1-0.5,1-1S33.5,25.6,32.9,25.6z M18.8,30.3h-1.6c-0.6,0-1,0.5-1,1s0.5,1,1,1h1.6
	c0.6,0,1-0.5,1-1S19.4,30.3,18.8,30.3z M25.9,30.3h-2.3c-0.6,0-1,0.5-1,1s0.5,1,1,1h2.3c0.6,0,1-0.5,1-1S26.5,30.3,25.9,30.3z
	 M20.5,30.6c-0.2,0.2-0.3,0.5-0.3,0.7c0,0.3,0.1,0.5,0.3,0.7c0.2,0.2,0.5,0.3,0.7,0.3c0.3,0,0.5-0.1,0.7-0.3
	c0.2-0.2,0.3-0.5,0.3-0.7c0-0.3-0.1-0.5-0.3-0.7C21.6,30.3,20.8,30.3,20.5,30.6z M17.3,23h2.3c0.6,0,1-0.5,1-1s-0.5-1-1-1h-2.3
	c-0.6,0-1,0.5-1,1S16.7,23,17.3,23z M32.9,20.9h-8.6c-0.6,0-1,0.5-1,1s0.5,1,1,1h8.6c0.6,0,1-0.5,1-1S33.5,20.9,32.9,20.9z
	 M21.2,21.2c-0.2,0.2-0.3,0.5-0.3,0.7c0,0.3,0.1,0.5,0.3,0.7c0.2,0.2,0.5,0.3,0.7,0.3c0.3,0,0.5-0.1,0.7-0.3
	c0.2-0.2,0.3-0.5,0.3-0.7c0-0.3-0.1-0.5-0.3-0.7C22.3,20.9,21.6,20.9,21.2,21.2z M24.6,17.3c0-0.6-0.5-1-1-1h-6.3c-0.6,0-1,0.5-1,1
	s0.5,1,1,1h6.3C24.1,18.3,24.6,17.8,24.6,17.3z M28.2,18.3h4.7c0.6,0,1-0.5,1-1s-0.5-1-1-1h-4.7c-0.6,0-1,0.5-1,1
	S27.7,18.3,28.2,18.3z M25.1,16.5c-0.2,0.2-0.3,0.5-0.3,0.7c0,0.3,0.1,0.5,0.3,0.7c0.2,0.2,0.5,0.3,0.7,0.3c0.3,0,0.5-0.1,0.7-0.3
	c0.2-0.2,0.3-0.5,0.3-0.7c0-0.3-0.1-0.5-0.3-0.7C26.2,16.2,25.5,16.2,25.1,16.5z"/>
</svg>
