<?xml version="1.0" encoding="utf-8"?>
<!-- Generator: Adobe Illustrator 24.2.3, SVG Export Plug-In . SVG Version: 6.00 Build 0)  -->
<svg version="1.1" id="圖層_1" xmlns="http://www.w3.org/2000/svg" xmlns:xlink="http://www.w3.org/1999/xlink" x="0px" y="0px"
	 viewBox="0 0 50 50" style="enable-background:new 0 0 50 50;" xml:space="preserve">
<style type="text/css">
	.st0{fill:#555555;}
</style>
<path class="st0" d="M40.6,5.8c-0.2-0.2-0.4-0.3-0.7-0.3H16.7c-0.2-1.1-0.8-2-1.7-2.6c-0.9-0.7-2.1-1-3.2-0.9s-2.2,0.6-3,1.5
	C8,4.3,7.6,5.5,7.6,6.6v35.9h0.1c0.2,1,0.8,1.9,1.5,2.5c0.8,0.7,1.9,1.1,3,1.1h20.3c0.3,0,0.5-0.1,0.7-0.3s0.3-0.4,0.3-0.7v-1.9h6.3
	c0.3,0,0.5-0.1,0.7-0.3s0.3-0.4,0.3-0.7V6.5C40.8,6.3,40.7,6,40.6,5.8z M9.6,6.5c0-0.7,0.3-1.4,0.8-1.9s1.2-0.8,1.9-0.8
	s1.4,0.3,1.9,0.8S15,5.8,15,6.5v31.1c-0.8-0.5-1.7-0.8-2.7-0.8s-1.9,0.3-2.7,0.8V6.5z M31.6,44.1H12.2c-0.5,0-1-0.2-1.5-0.4
	c-0.4-0.3-0.8-0.7-1-1.2s-0.3-1-0.2-1.5s0.4-1,0.7-1.4c0.4-0.4,0.8-0.6,1.4-0.7c0.2,0,0.3-0.1,0.5-0.1c0.3,0,0.7,0.1,1,0.2
	c0.5,0.2,0.9,0.5,1.2,1c0.3,0.4,0.4,1,0.4,1.5v0.7c0,0.3,0.1,0.5,0.3,0.7s0.4,0.3,0.7,0.3h15.7v0.9H31.6z M38.9,41.2h-22V7.5h22
	V41.2z M18.8,17.7H37c0.3,0,0.5-0.1,0.7-0.3c0.2-0.2,0.3-0.4,0.3-0.7V9.4c0-0.3-0.1-0.5-0.3-0.7S37.3,8.4,37,8.4H18.8
	c-0.3,0-0.5,0.1-0.7,0.3s-0.3,0.4-0.3,0.7v7.3c0,0.3,0.1,0.5,0.3,0.7C18.3,17.6,18.5,17.7,18.8,17.7z M19.8,10.4H36v5.3H19.8V10.4z
	 M18.8,28.6h8.7c0.3,0,0.5-0.1,0.7-0.3c0.2-0.2,0.3-0.4,0.3-0.7v-8c0-0.3-0.1-0.5-0.3-0.7c-0.2-0.2-0.4-0.3-0.7-0.3h-8.7
	c-0.3,0-0.5,0.1-0.7,0.3c-0.2,0.2-0.3,0.4-0.3,0.7v8c0,0.3,0.1,0.5,0.3,0.7C18.3,28.5,18.5,28.6,18.8,28.6z M19.8,20.6h6.8v6h-6.8
	V20.6z M37,29.5h-8.7c-0.3,0-0.5,0.1-0.7,0.3s-0.3,0.4-0.3,0.7v8.7c0,0.3,0.1,0.5,0.3,0.7s0.4,0.3,0.7,0.3H37c0.3,0,0.5-0.1,0.7-0.3
	s0.3-0.4,0.3-0.7v-8.7c0-0.3-0.1-0.5-0.3-0.7C37.5,29.6,37.2,29.5,37,29.5z M36,38.3h-6.8v-6.8H36V38.3z M29.4,21.3h8.5v-2h-8.5
	C29.4,19.3,29.4,21.3,29.4,21.3z M29.4,24.2h8.5v-2h-8.5C29.4,22.2,29.4,24.2,29.4,24.2z M29.4,27.1h8.5v-2h-8.5
	C29.4,25.1,29.4,27.1,29.4,27.1z M26.3,29.5h-8.5v2h8.5V29.5z M26.3,32.4h-8.5v2h8.5V32.4z M26.3,35.4h-8.5v2h8.5V35.4z M26.3,38.3
	h-8.5v2h8.5V38.3z"/>
</svg>
