<?xml version="1.0" encoding="utf-8"?>
<!-- Generator: Adobe Illustrator 24.2.3, SVG Export Plug-In . SVG Version: 6.00 Build 0)  -->
<svg version="1.1" id="Capa_1" xmlns="http://www.w3.org/2000/svg" xmlns:xlink="http://www.w3.org/1999/xlink" x="0px" y="0px"
	 viewBox="0 0 50 50" style="enable-background:new 0 0 50 50;" xml:space="preserve">
<style type="text/css">
	.st0{fill:#C51623;}
</style>
<g>
	<path class="st0" d="M46.1,35.1L30.7,8.3c-2.5-4.4-8.9-4.4-11.4,0L3.9,35.1C1.4,39.5,4.5,45,9.6,45h30.8
		C45.5,45,48.7,39.4,46.1,35.1z M25,39c-1.3,0-2.5-1.1-2.5-2.5c0-1.3,1.1-2.5,2.5-2.5s2.5,1.1,2.4,2.5C27.5,37.9,26.3,39,25,39z
		 M27.2,23.2c-0.1,1.9-0.2,3.8-0.3,5.7c-0.1,0.6-0.1,1.2-0.1,1.8c-0.1,1-0.8,1.8-1.8,1.8s-1.8-0.7-1.8-1.7c-0.2-3-0.3-5.9-0.5-8.8
		c-0.1-0.8-0.1-1.6-0.2-2.3c0-1.3,0.7-2.3,1.9-2.7c1.2-0.3,2.3,0.3,2.9,1.4c0.2,0.4,0.2,0.8,0.2,1.2C27.4,20.7,27.3,21.9,27.2,23.2z
		"/>
</g>
</svg>
