<svg width="60" height="77" viewBox="0 0 60 77" fill="none" xmlns="http://www.w3.org/2000/svg">
<path d="M6.42857 77H57.8571C59.0409 77 60 76.0426 60 74.8611V2.13889C60 0.957367 59.0409 0 57.8571 0H6.42857C2.88343 0 0 2.87809 0 6.41667V70.5833C0 74.1219 2.88343 77 6.42857 77ZM12.8571 4.27778H55.7143V64.1667H12.8571V4.27778ZM4.28571 6.41667C4.28571 5.23686 5.24743 4.27778 6.42857 4.27778H8.57143V64.1667H6.42857C5.676 64.1667 4.95686 64.3027 4.28571 64.5414V6.41667ZM6.42857 68.4444H53.5714V72.7222H6.42857C5.24743 72.7222 4.28571 71.7631 4.28571 70.5833C4.28571 69.4035 5.24743 68.4444 6.42857 68.4444Z" fill="#333333"/>
<path d="M44.625 13H23.375C19.8594 13 17 15.9155 17 19.5V32.5C17 36.0845 19.8594 39 23.375 39H44.625C48.1406 39 51 36.0845 51 32.5V19.5C51 15.9155 48.1406 13 44.625 13ZM46.75 32.5C46.75 33.6951 45.7963 34.6667 44.625 34.6667H23.375C22.2037 34.6667 21.25 33.6951 21.25 32.5V19.5C21.25 18.3049 22.2037 17.3333 23.375 17.3333H44.625C45.7963 17.3333 46.75 18.3049 46.75 19.5V32.5Z" fill="#333333"/>
</svg>
