<?xml version="1.0" encoding="utf-8"?>
<!-- Generator: Adobe Illustrator 24.2.3, SVG Export Plug-In . SVG Version: 6.00 Build 0)  -->
<svg version="1.1" id="圖層_1" xmlns="http://www.w3.org/2000/svg" xmlns:xlink="http://www.w3.org/1999/xlink" x="0px" y="0px"
	 viewBox="0 0 50 50" style="enable-background:new 0 0 50 50;" xml:space="preserve">
<style type="text/css">
	.st0{fill:#333333;}
</style>
<g>
	<path class="st0" d="M42.8,2.5H13.7c-0.6,0-1,0.5-1,1v4H8.2c-0.6,0-1,0.5-1,1v38c0,0.6,0.5,1,1,1h29.1c0.6,0,1-0.5,1-1v-4h4.5
		c0.6,0,1-0.5,1-1v-38C43.8,2.9,43.3,2.5,42.8,2.5z M36.3,45.5H9.2v-36h19v7c0,0.6,0.5,1,1,1h7V45.5z M30.3,15.5v-4.6l4.6,4.6H30.3z
		 M41.8,40.5h-3.5v-24c0-0.1,0-0.2,0-0.2c0-0.1-0.1-0.1-0.1-0.1v-0.1c0-0.1-0.1-0.1-0.1-0.2c0,0,0-0.1-0.1-0.1
		c-0.1-0.1-0.1-0.1-0.1-0.2l-8-8c-0.1-0.1-0.1-0.1-0.2-0.1c0,0,0,0-0.1,0c-0.1,0-0.1,0-0.2,0h-0.1c-0.1,0-0.1-0.1-0.1-0.1
		c-0.1,0-0.2,0-0.2,0H14.8V4.5h27.1L41.8,40.5L41.8,40.5z M15.2,16.5c0-0.6,0.5-1,1-1h5.5c0.6,0,1,0.5,1,1s-0.5,1-1,1h-5.5
		C15.7,17.5,15.2,17,15.2,16.5z M12.7,20.5h20c0.6,0,1,0.5,1,1s-0.5,1-1,1h-20c-0.6,0-1-0.5-1-1S12.2,20.5,12.7,20.5z M33.8,26.5
		c0,0.6-0.5,1-1,1h-20c-0.6,0-1-0.5-1-1c0-0.6,0.5-1,1-1h20C33.3,25.5,33.8,26,33.8,26.5z M33.8,31.5c0,0.6-0.5,1-1,1h-20
		c-0.6,0-1-0.5-1-1c0-0.6,0.5-1,1-1h20C33.3,30.5,33.8,31,33.8,31.5z M21.2,38.5c0,0.6-0.5,1-1,1h-7.5c-0.6,0-1-0.5-1-1
		c0-0.6,0.5-1,1-1h7.5C20.8,37.5,21.2,38,21.2,38.5z M33.8,38.5c0,0.6-0.5,1-1,1h-7.5c-0.6,0-1-0.5-1-1c0-0.6,0.5-1,1-1h7.5
		C33.3,37.5,33.8,38,33.8,38.5z"/>
</g>
</svg>
