<?xml version="1.0" encoding="utf-8"?>
<!-- Generator: Adobe Illustrator 24.2.3, SVG Export Plug-In . SVG Version: 6.00 Build 0)  -->
<svg version="1.1" id="圖層_1" xmlns="http://www.w3.org/2000/svg" xmlns:xlink="http://www.w3.org/1999/xlink" x="0px" y="0px"
	 viewBox="0 0 50 50" style="enable-background:new 0 0 50 50;" xml:space="preserve">
<style type="text/css">
	.st0{fill:#323333;}
</style>
<path class="st0" d="M39.7,4.2H16.4c-1.4,0-2.5,1.1-2.5,2.5v3.6h-3.6c-1.4,0-2.5,1.1-2.5,2.5v30.5c0,1.4,1.1,2.5,2.5,2.5h23.3
	c1.4,0,2.5-1.1,2.5-2.5v-3.6h3.6c1.4,0,2.5-1.1,2.5-2.5V6.7C42.1,5.3,41,4.2,39.7,4.2z M33.9,43.3c0,0.1-0.1,0.2-0.2,0.2H10.3
	c-0.1,0-0.2-0.1-0.2-0.2V12.7c0-0.1,0.1-0.2,0.2-0.2h3.6v24.7c0,1.4,1.1,2.5,2.5,2.5h17.5V43.3z M39.9,37L39.9,37l0,0.2
	c0,0.1-0.1,0.2-0.2,0.2H16.4c-0.1,0-0.2-0.1-0.2-0.2V6.7c0-0.1,0.1-0.2,0.2-0.2h23.3c0.1,0,0.2,0.1,0.2,0.2V37z M34.9,26.2H21.1
	c-0.6,0-1.1,0.5-1.1,1.1s0.5,1.1,1.1,1.1h13.8c0.6,0,1.1-0.5,1.1-1.1S35.5,26.2,34.9,26.2z M34.9,31.8H21.1c-0.6,0-1.1,0.5-1.1,1.1
	c0,0.6,0.5,1.1,1.1,1.1h13.8c0.6,0,1.1-0.5,1.1-1.1C36.1,32.3,35.5,31.8,34.9,31.8z M34.9,20.6H21.1c-0.6,0-1.1,0.5-1.1,1.1
	c0,0.6,0.5,1.1,1.1,1.1h13.8c0.6,0,1.1-0.5,1.1-1.1C36.1,21.1,35.6,20.6,34.9,20.6z M22.7,17.4h1.7c0.3,0,0.5-0.3,0.5-0.5v-2.7
	c0-0.3-0.3-0.5-0.5-0.5h-1.7c-0.3,0-0.5,0.3-0.5,0.5v2.7C22.2,17.1,22.4,17.4,22.7,17.4z M26.9,17.4h1.7c0.3,0,0.5-0.3,0.5-0.5v-4.6
	c0-0.3-0.3-0.5-0.5-0.5h-1.7c-0.3,0-0.5,0.3-0.5,0.5v4.6C26.4,17.1,26.6,17.4,26.9,17.4z M31.1,17.4h1.7c0.3,0,0.5-0.3,0.5-0.5v-6.5
	c0-0.3-0.3-0.5-0.5-0.5h-1.7c-0.3,0-0.5,0.3-0.5,0.5v6.5C30.5,17.1,30.8,17.4,31.1,17.4z"/>
</svg>
