<?xml version="1.0" encoding="utf-8"?>
<!-- Generator: Adobe Illustrator 24.2.3, SVG Export Plug-In . SVG Version: 6.00 Build 0)  -->
<svg version="1.1" id="圖層_1" xmlns="http://www.w3.org/2000/svg" xmlns:xlink="http://www.w3.org/1999/xlink" x="0px" y="0px"
	 viewBox="0 0 50 50" style="enable-background:new 0 0 50 50;" xml:space="preserve">
<style type="text/css">
	.st0{fill:#333333;}
</style>
<path class="st0" d="M45.5,28.3V7.9c0.8-0.2,1.4-0.9,1.4-1.7V4.9c0-1-0.8-1.7-1.7-1.7H16.7c-1,0-1.7,0.8-1.7,1.7v1.4
	c0,0.8,0.6,1.5,1.4,1.7v0.6c-0.7-0.4-1.5-0.7-2.3-0.7c-2.4,0-4.4,2-4.4,4.4v1.4c0,1.2,0.5,2.3,1.4,3.2v0.8l-2.5,0.7
	c-1.3,0.4-2.2,1.6-2.2,3v1.5h-2V33h2.1v-8.1h15.5v6.1c-0.4,0.7-0.7,1.5-0.7,2.3v1.4c0,1.2,0.5,2.3,1.4,3.2v0.8l-2.5,0.7
	c-0.4,0.1-0.8,0.3-1.2,0.7c-0.3-0.3-0.7-0.5-1.2-0.7l-2.5-0.7v-0.8c0.9-0.8,1.4-2,1.4-3.2v-1.4c0-2.4-2-4.4-4.4-4.4
	c-2.4,0-4.4,2-4.4,4.4v1.4c0,1.2,0.5,2.3,1.4,3.2v0.8l-2.5,0.7c-1.3,0.4-2.2,1.6-2.2,3v3.6h42.7v-3.6c0-1.4-0.9-2.6-2.2-3l-2.5-0.7
	v-0.8c0.9-0.8,1.4-2,1.4-3.2v-1.4c0-2.4-2-4.4-4.4-4.4s-4.4,2-4.4,4.4v1.4c0,1.2,0.5,2.3,1.4,3.2v0.8l-2.5,0.7
	c-0.4,0.1-0.8,0.3-1.2,0.7c-0.3-0.3-0.7-0.5-1.2-0.7l-2.5-0.7v-0.8c0.9-0.8,1.4-2,1.4-3.2v-1.4c0-2.4-2-4.4-4.4-4.4
	c-0.6,0-1.1,0.1-1.7,0.3v-0.9H45.5z M40,39.1c-0.2,0.2-0.5,0.6-1,0.6c-0.5,0-0.8-0.4-1-0.6V39c0.6,0.1,1.3,0.1,2,0V39.1z M41.4,34.6
	c0,1.3-1,2.3-2.3,2.3s-2.3-1-2.3-2.3v-1.4c0-1.3,1-2.3,2.3-2.3s2.3,1,2.3,2.3V34.6z M36.6,40.6c0.4,0.5,1.3,1.2,2.5,1.2
	s2-0.7,2.5-1.2l2.5,0.7c0.4,0.1,0.7,0.5,0.7,0.9v1.5H33.3v-1.5c0-0.4,0.3-0.8,0.7-0.9L36.6,40.6z M13,39.1c-0.2,0.2-0.5,0.6-1,0.6
	c-0.5,0-0.8-0.4-1-0.6V39c0.6,0.1,1.3,0.1,2,0V39.1z M14.3,34.6c0,1.3-1,2.3-2.3,2.3c-1.3,0-2.3-1-2.3-2.3v-1.4c0-1.3,1-2.3,2.3-2.3
	c1.3,0,2.3,1,2.3,2.3V34.6z M9.5,40.6c0.4,0.5,1.3,1.2,2.5,1.2c1.2,0,2-0.7,2.5-1.2l2.5,0.7c0.4,0.1,0.7,0.5,0.7,0.9v1.5H6.3v-1.5
	c0-0.4,0.3-0.8,0.7-0.9L9.5,40.6z M31.2,43.7H19.8v-1.5c0-0.4,0.3-0.8,0.7-0.9l2.5-0.7c0.4,0.5,1.3,1.2,2.5,1.2c1.2,0,2-0.7,2.5-1.2
	l2.5,0.7h0c0.4,0.1,0.7,0.5,0.7,0.9V43.7z M26.5,39.1c-0.2,0.2-0.5,0.6-1,0.6c-0.5,0-0.8-0.4-1-0.6V39c0.6,0.2,1.3,0.1,2,0V39.1z
	 M27.8,34.6c0,1.3-1,2.3-2.3,2.3s-2.3-1-2.3-2.3v-1.4c0-1.3,1-2.3,2.3-2.3s2.3,1,2.3,2.3V34.6z M21.8,22.8v-1.5c0-1.4-0.9-2.6-2.2-3
	l-2.5-0.7v-0.8c0.9-0.8,1.4-2,1.4-3.2V8h25v18.2H23.8v-3.4H21.8z M15,18.1c-0.2,0.2-0.5,0.6-1,0.6c-0.5,0-0.8-0.4-1-0.6V18
	c0.6,0.1,1.3,0.1,2,0V18.1z M16.3,13.7c0,1.3-1,2.3-2.3,2.3s-2.3-1-2.3-2.3v-1.4c0-1.3,1-2.3,2.3-2.3s2.3,1,2.3,2.3V13.7z
	 M11.5,19.6c0.4,0.5,1.3,1.2,2.5,1.2s2-0.7,2.5-1.2l2.5,0.7c0.4,0.1,0.7,0.5,0.7,0.9v1.5H8.3v-1.5c0-0.4,0.3-0.8,0.7-0.9L11.5,19.6z
	 M17.1,5.9V5.3h27.7l0,0.6H17.1z"/>
</svg>
