<?xml version="1.0" encoding="utf-8"?>
<!-- Generator: Adobe Illustrator 24.2.3, SVG Export Plug-In . SVG Version: 6.00 Build 0)  -->
<svg version="1.1" id="圖層_1" xmlns="http://www.w3.org/2000/svg" xmlns:xlink="http://www.w3.org/1999/xlink" x="0px" y="0px"
	 viewBox="0 0 50 50" style="enable-background:new 0 0 50 50;" xml:space="preserve">
<style type="text/css">
	.st0{fill:#555555;}
</style>
<path class="st0" d="M20.1,16.5h19.1c0.3,0,0.6-0.1,0.8-0.3c0.2-0.2,0.3-0.5,0.3-0.8s-0.1-0.6-0.3-0.8s-0.5-0.3-0.8-0.3H20.1
	c-0.3,0-0.6,0.1-0.8,0.3c-0.2,0.2-0.3,0.5-0.3,0.8s0.1,0.6,0.3,0.8C19.5,16.4,19.8,16.5,20.1,16.5z M20.1,21.3h5.7
	c0.3,0,0.6-0.1,0.8-0.3c0.2-0.2,0.3-0.5,0.3-0.8s-0.1-0.6-0.3-0.8c-0.2-0.2-0.5-0.3-0.8-0.3h-5.7c-0.3,0-0.6,0.1-0.8,0.3
	c-0.2,0.2-0.3,0.5-0.3,0.8s0.1,0.6,0.3,0.8C19.5,21.2,19.8,21.3,20.1,21.3z M39.2,19h-8.5c-0.3,0-0.6,0.1-0.8,0.3
	c-0.2,0.2-0.3,0.5-0.3,0.8v9.5c0,0.3,0.1,0.6,0.3,0.8c0.2,0.2,0.5,0.3,0.8,0.3h8.5c0.3,0,0.6-0.1,0.8-0.3c0.2-0.2,0.3-0.5,0.3-0.8
	v-9.5c0-0.3-0.1-0.6-0.3-0.8C39.7,19.2,39.5,19,39.2,19z M38,28.6h-6.2v-7.3H38V28.6z M9.6,37c0.3,0,0.6-0.1,0.8-0.3
	s0.3-0.5,0.3-0.8v-17c0-0.3-0.1-0.6-0.3-0.8c-0.4-0.4-1.2-0.4-1.6,0c-0.2,0.2-0.3,0.5-0.3,0.8v16.9c0,0.3,0.1,0.6,0.3,0.8
	C9.1,36.9,9.3,37,9.6,37z M20.1,35.6h19.1c0.3,0,0.6-0.1,0.8-0.3s0.3-0.5,0.3-0.8s-0.1-0.6-0.3-0.8s-0.5-0.3-0.8-0.3H20.1
	c-0.3,0-0.6,0.1-0.8,0.3c-0.2,0.2-0.3,0.5-0.3,0.8s0.1,0.6,0.3,0.8S19.8,35.6,20.1,35.6z M45.8,8.7c-0.2-0.2-0.5-0.3-0.8-0.3H14.2
	c-0.3,0-0.6,0.1-0.8,0.3s-0.3,0.5-0.3,0.8v26.4c0,0.9-0.4,1.8-1.1,2.4c-0.7,0.6-1.5,1-2.4,1s-1.8-0.4-2.4-1c-0.7-0.6-1-1.5-1.1-2.4
	V18.7c0-0.3-0.1-0.6-0.3-0.8c-0.4-0.4-1.2-0.4-1.6,0c-0.2,0.2-0.3,0.5-0.3,0.8v17.1c0,1.5,0.6,3,1.7,4.1s2.5,1.7,4.1,1.7h31.5
	c0.7,0,1.3-0.1,1.9-0.4c0.6-0.2,1.1-0.6,1.6-1.1s0.8-1,1.1-1.6s0.4-1.3,0.4-1.9V9.5C46.1,9.2,46,8.9,45.8,8.7z M43.8,36.7
	c0,0.4-0.1,0.7-0.2,1c-0.1,0.3-0.3,0.6-0.6,0.9c-0.3,0.3-0.5,0.5-0.9,0.6c-0.3,0.1-0.7,0.2-1,0.2h-27c0.8-1,1.2-2.2,1.2-3.5V10.6
	h28.5V36.7z M20.1,26.1h5.7c0.3,0,0.6-0.1,0.8-0.3c0.2-0.2,0.3-0.5,0.3-0.8s-0.1-0.6-0.3-0.8c-0.2-0.2-0.5-0.3-0.8-0.3h-5.7
	c-0.3,0-0.6,0.1-0.8,0.3C19.1,24.4,19,24.7,19,25s0.1,0.6,0.3,0.8C19.5,25.9,19.8,26.1,20.1,26.1z M20.1,30.8h5.7
	c0.3,0,0.6-0.1,0.8-0.3c0.2-0.2,0.3-0.5,0.3-0.8s-0.1-0.6-0.3-0.8c-0.2-0.2-0.5-0.3-0.8-0.3h-5.7c-0.3,0-0.6,0.1-0.8,0.3
	c-0.2,0.2-0.3,0.5-0.3,0.8s0.1,0.6,0.3,0.8C19.5,30.7,19.8,30.8,20.1,30.8z"/>
</svg>
