<?xml version="1.0" encoding="utf-8"?>
<!-- Generator: Adobe Illustrator 24.2.3, SVG Export Plug-In . SVG Version: 6.00 Build 0)  -->
<svg version="1.1" id="圖層_1" xmlns="http://www.w3.org/2000/svg" xmlns:xlink="http://www.w3.org/1999/xlink" x="0px" y="0px"
	 viewBox="0 0 50 50" style="enable-background:new 0 0 50 50;" xml:space="preserve">
<style type="text/css">
	.st0{fill:#555555;}
</style>
<g>
	<path class="st0" d="M40.8,2.4H9.2C8.6,2.4,8,2.6,7.5,3C7.1,3.4,6.9,4,6.9,4.6v40.8c0,0.6,0.2,1.2,0.7,1.6c0.4,0.4,1,0.7,1.6,0.7
		h31.7c0.6,0,1.2-0.2,1.6-0.7c0.4-0.4,0.7-1,0.7-1.6V4.6C43.2,4,43,3.4,42.5,3S41.4,2.4,40.8,2.4z M40.8,45.4H9.2V4.6h31.7v40.8
		H40.8z M39.7,6.9H10.3v34h29.4V6.9z M37.5,38.6h-25V9.2h24.9L37.5,38.6L37.5,38.6z M22.7,42h4.5v2.3h-4.5V42z M34.1,17.1H15.9v-2.3
		H34L34.1,17.1L34.1,17.1z M34.1,21.6H15.9v-2.3H34L34.1,21.6L34.1,21.6z M27.3,26.1H15.9v-2.3h11.3L27.3,26.1L27.3,26.1z"/>
</g>
</svg>
