<?xml version="1.0" encoding="utf-8"?>
<!-- Generator: Adobe Illustrator 24.2.3, SVG Export Plug-In . SVG Version: 6.00 Build 0)  -->
<svg version="1.1" id="圖層_1" xmlns="http://www.w3.org/2000/svg" xmlns:xlink="http://www.w3.org/1999/xlink" x="0px" y="0px"
	 viewBox="0 0 50 50" style="enable-background:new 0 0 50 50;" xml:space="preserve">
<style type="text/css">
	.st0{fill:#333333;}
</style>
<g>
	<path class="st0" d="M42,10c0,0,0,0.1,0,0.1v37.1c0,0.6-0.5,1.1-1.1,1.1H9c-0.6,0-1.1-0.5-1.1-1.1V2.8C8,2.2,8.4,1.7,9,1.7h24.5
		c0,0,0.1,0,0.1,0c0,0,0.1,0,0.1,0c0,0,0,0,0,0c0,0,0.1,0,0.1,0c0,0,0,0,0,0c0,0,0.1,0,0.1,0c0,0,0,0,0,0c0,0,0.1,0,0.1,0
		c0,0,0,0,0,0c0,0,0,0,0.1,0c0,0,0,0,0,0c0,0,0,0,0.1,0c0,0,0,0,0,0c0,0,0,0,0.1,0.1c0,0,0,0,0,0l7.4,7.4c0,0,0,0,0,0
		c0,0,0,0,0.1,0.1c0,0,0,0,0,0c0,0,0,0,0,0.1c0,0,0,0,0,0c0,0,0,0,0,0.1c0,0,0,0,0,0c0,0,0,0.1,0,0.1c0,0,0,0,0,0c0,0,0,0.1,0,0.1
		c0,0,0,0,0,0c0,0,0,0.1,0,0.1C42,10,42,10,42,10C42,10,42,10,42,10z M34.6,5.3v3.8h3.8L34.6,5.3z M10.1,46.2h29.8v-35h-6.3
		c-0.6,0-1.1-0.5-1.1-1.1V3.8H10.1V46.2z M33.8,19.9h-8.5c-0.6,0-1.2-0.5-1.2-1.2c0-0.6,0.5-1.2,1.2-1.2h8.5c0.6,0,1.2,0.5,1.2,1.2
		C35,19.4,34.5,19.9,33.8,19.9z M24.2,38h-8.5c-0.6,0-1.2-0.5-1.2-1.2c0-0.6,0.5-1.2,1.2-1.2h8.5c0.6,0,1.2,0.5,1.2,1.2
		C25.4,37.5,24.8,38,24.2,38z M15.8,29.7h18.7c0.7,0,1.2,0.5,1.2,1.2c0,0.7-0.5,1.1-1.2,1.1H15.8c-0.7,0-1.1-0.5-1.1-1.1
		C14.6,30.2,15.1,29.7,15.8,29.7z M15.8,23.6h18.7c0.7,0,1.2,0.5,1.2,1.1c0,0.7-0.5,1.2-1.2,1.2H15.8c-0.7,0-1.1-0.5-1.1-1.2
		C14.6,24.1,15.1,23.6,15.8,23.6z M28.8,38.4h-0.2c-0.4,0-0.7-0.2-1.1-0.5c-0.3-0.3-0.5-0.7-0.5-1.1c0-0.4,0.2-0.8,0.5-1.1
		c0.3-0.3,0.7-0.4,1.2-0.4c0.5,0,1,0.2,1.3,0.6c0.3,0.4,0.5,1,0.5,1.7c0,0.7-0.1,1.3-0.4,1.9c-0.3,0.6-0.6,1.1-1.1,1.4
		c-0.4,0.4-0.8,0.5-1.1,0.5c-0.2,0-0.4-0.1-0.5-0.2c-0.1-0.1-0.2-0.3-0.2-0.5c0-0.3,0.1-0.5,0.4-0.7c0.4-0.2,0.7-0.5,0.9-0.7
		C28.7,39.2,28.8,38.8,28.8,38.4z M33.5,38.4h-0.1c-0.4,0-0.8-0.2-1.1-0.5c-0.3-0.3-0.5-0.7-0.5-1.1c0-0.4,0.2-0.8,0.5-1.1
		c0.3-0.3,0.7-0.5,1.2-0.5c0.5,0,1,0.2,1.3,0.6c0.3,0.4,0.5,1,0.5,1.8c0,0.7-0.1,1.4-0.4,1.9c-0.3,0.6-0.6,1.1-1.1,1.4
		c-0.4,0.4-0.8,0.5-1.2,0.5c-0.2,0-0.4-0.1-0.5-0.2c-0.1-0.1-0.2-0.3-0.2-0.5c0-0.3,0.1-0.5,0.4-0.7c0.4-0.2,0.7-0.5,0.9-0.7
		C33.3,39.2,33.4,38.8,33.5,38.4z M16.3,17.4h0.1c0.4,0,0.8,0.2,1.1,0.5c0.3,0.3,0.5,0.7,0.5,1.1c0,0.4-0.2,0.8-0.5,1.1
		c-0.3,0.3-0.7,0.4-1.2,0.4c-0.5,0-0.9-0.2-1.3-0.6c-0.3-0.4-0.5-1-0.5-1.7c0-0.7,0.1-1.3,0.4-1.9c0.3-0.6,0.7-1.1,1.1-1.4
		c0.4-0.4,0.8-0.5,1.1-0.5c0.2,0,0.4,0.1,0.5,0.2c0.1,0.1,0.2,0.3,0.2,0.5c0,0.3-0.1,0.5-0.4,0.7c-0.4,0.2-0.7,0.4-0.9,0.7
		C16.4,16.7,16.3,17,16.3,17.4z M20.9,17.4H21c0.4,0,0.7,0.2,1.1,0.5c0.3,0.3,0.5,0.7,0.5,1.1c0,0.4-0.2,0.8-0.5,1.1
		c-0.3,0.3-0.7,0.4-1.2,0.4c-0.5,0-0.9-0.2-1.3-0.6c-0.3-0.4-0.5-1-0.5-1.7c0-0.5,0.1-1,0.3-1.5c0.2-0.5,0.4-0.9,0.7-1.2
		c0.3-0.4,0.6-0.6,0.9-0.8c0.3-0.2,0.6-0.3,0.9-0.3c0.2,0,0.4,0.1,0.5,0.2c0.1,0.1,0.2,0.3,0.2,0.5c0,0.3-0.1,0.5-0.4,0.7
		c-0.4,0.2-0.7,0.5-0.9,0.7C21.1,16.7,20.9,17,20.9,17.4z"/>
</g>
</svg>
