<?xml version="1.0" encoding="utf-8"?>
<!-- Generator: Adobe Illustrator 24.2.3, SVG Export Plug-In . SVG Version: 6.00 Build 0)  -->
<svg version="1.1" id="圖層_1" xmlns="http://www.w3.org/2000/svg" xmlns:xlink="http://www.w3.org/1999/xlink" x="0px" y="0px"
	 viewBox="0 0 50 50" style="enable-background:new 0 0 50 50;" xml:space="preserve">
<style type="text/css">
	.st0{fill:#555555;}
</style>
<path class="st0" d="M29.4,17.1l0.8-0.8v-0.1c0-0.5-0.5-0.9-1-0.9H10.4c-0.5,0-1,0.4-1,0.9s0.4,0.9,1,0.9h18.8h0.1v-0.3v0.3H29.4z
	 M28.1,18.5H10.4c-0.5,0-1,0.4-1,0.9s0.4,0.9,1,0.9h16L28.1,18.5z M25.6,22.5l0.2-0.1l-0.1-0.2c0-0.1,0-0.1,0-0.2v-0.2H10.4
	c-0.5,0-1,0.4-1,0.9s0.4,0.9,1,0.9h11.2C23.2,23.5,24.5,23.1,25.6,22.5z M16.1,25.5l0.2-0.5h-5.9c-0.5,0-1,0.4-1,0.9s0.4,0.9,1,0.9
	h5.2L16.1,25.5z M15.2,28.3h-4.8c-0.5,0-1,0.4-1,0.9s0.4,0.9,1,0.9h4.2L15.2,28.3z M14.1,31.6h-3.7c-0.5,0-1,0.4-1,0.9
	s0.4,0.9,1,0.9h3.1L14.1,31.6z M13,34.8h-2.6c-0.5,0-1,0.4-1,0.9s0.4,0.9,1,0.9h2L13,34.8z M30.1,39c0-0.4-0.3-0.8-0.7-0.9h-0.1
	l-6.6,1.8h6.4C29.7,39.9,30.1,39.5,30.1,39z M10.4,38.1c-0.5,0-1,0.4-1,0.9s0.4,0.9,1,0.9h0.9l0.6-1.9L10.4,38.1L10.4,38.1z
	 M13.4,42.5c-0.2,0.1-0.5,0.1-0.7,0.1c-0.6,0-1.1-0.2-1.4-0.6c-0.1-0.2-0.2-0.3-0.3-0.5v-0.2h-0.7c-0.5,0-1,0.4-1,0.9s0.4,0.9,1,0.9
	h18.8c0.5,0,1-0.4,1-0.9s-0.4-0.9-1-0.9H17.8L13.4,42.5z M35.5,29.1c-0.3,0.2-0.7,0.4-1.1,0.4H34v13.8c0,0.6-0.5,1-1.2,1h-26
	c-0.6,0-1.2-0.5-1.2-1V6.8c0-0.6,0.5-1,1.2-1h16.3v5.3c0,1.6,1.4,2.8,3.2,2.8h6.1l0.1-0.1c0.7-0.7,1.8-0.8,2.6-0.2
	c0.2,0.1,0.3,0.3,0.4,0.4l0.5,0.8v-2.2L24,3.9H6.8C5,3.9,3.6,5.2,3.6,6.8v36.4c0,1.6,1.4,2.9,3.2,2.9h26c1.7,0,3.2-1.3,3.2-2.9V29.3
	v-0.5L35.5,29.1z M25.1,7.2l6.6,4.8h-5.4c-0.6,0-1.2-0.4-1.2-1V7.2z M46.2,19.5L46.2,19.5c-0.3-0.4-0.9-0.5-1.4-0.2l-10.4,7.2
	l-5.5-4.9l5.7-6.2c0.2-0.2,0.3-0.4,0.2-0.7c0-0.3-0.2-0.5-0.4-0.6c-0.4-0.3-1-0.3-1.4,0.1L26.7,21c-0.2,0.2-0.2,0.4-0.2,0.7
	c0,0.2,0.1,0.5,0.3,0.6l0.1,0.1c-2.4,1.7-5.8,2-7.6,2c-0.2,0-0.4,0-0.6,0h-0.1c-0.8,0-1.6,0.5-1.8,1.2l-4.9,15
	c-0.1,0.3-0.1,0.6,0.1,0.9c0.1,0.2,0.4,0.3,0.7,0.3c0.1,0,0.3,0,0.4-0.1l16.4-4.6c0.8-0.2,1.4-1,1.4-1.8c-0.1-4.3,1.4-6.4,2.4-7.3
	l0.4,0.3c0.3,0.3,0.9,0.3,1.3,0.1l11-7.7c0.2-0.2,0.4-0.4,0.4-0.6C46.4,19.9,46.3,19.7,46.2,19.5z M28.9,35.5l-12.2,3.4l7.3-6.3
	c1.3,0.2,2.4-0.7,2.4-1.9c0-1-0.9-1.9-2.1-1.9c-1.1,0-2.1,0.8-2.1,1.9c0,0.2,0.1,0.5,0.2,0.7L15,37.8l3.8-11.5c0.2,0,0.4,0,0.6,0
	c2.5,0,6.1-0.4,8.8-2.4l3.4,3.1C30.3,28.5,28.8,31,28.9,35.5z M35.1,17.8l-2.9,2.6c-0.2,0.2-0.3,0.4-0.3,0.7c0,0.3,0.1,0.5,0.3,0.7
	c0.2,0.2,0.4,0.3,0.7,0.3s0.5-0.1,0.7-0.3l2.9-2.6c0.2-0.2,0.3-0.4,0.3-0.7c0-0.3-0.1-0.5-0.3-0.7C36.1,17.4,35.4,17.4,35.1,17.8z
	 M33.7,22.9c0,0.3,0.1,0.5,0.3,0.7s0.4,0.3,0.7,0.3s0.5-0.1,0.7-0.3l2.9-2.6c0.2-0.2,0.3-0.4,0.3-0.7c0-0.3-0.1-0.5-0.3-0.7
	c-0.4-0.4-1-0.4-1.4,0L34,22.3C33.8,22.5,33.7,22.7,33.7,22.9z"/>
</svg>
